<svg preserveAspectRatio="none" overflow="visible" style="display: block;" width="77.8615" height="21.5814" viewBox="0 0 77.8615 21.5814" fill="none" xmlns="http://www.w3.org/2000/svg">
<g id="Group 1000005954">
<g id="dSavings">
<mask id="path-1-outside-1_0_284" maskUnits="userSpaceOnUse" x="-0.741955" y="-0.741955" width="79" height="23" fill="black">
<rect fill="white" x="-0.741955" y="-0.741955" width="79" height="23"/>
<path d="M9.01651 0.258045V16.1289H7.42014V15.3773C6.31275 16.0257 5.21974 16.3499 4.14111 16.3499C3.56584 16.3499 3.06248 16.2762 2.63103 16.1289C2.19958 15.9815 1.79689 15.7163 1.42296 15.3331C0.646351 14.5374 0.258045 13.0711 0.258045 10.9344C0.258045 8.78291 0.603206 7.23562 1.29353 6.2925C1.99823 5.33465 3.15596 4.85573 4.76671 4.85573C5.60085 4.85573 6.48533 4.95151 7.42014 5.14308V0.258045L9.01651 0.258045ZM2.67417 14.1395C2.90428 14.4195 3.14877 14.6111 3.40764 14.7142C3.66651 14.8174 3.99729 14.8689 4.39998 14.8689C4.81705 14.8689 5.27726 14.8026 5.78062 14.67C6.29837 14.5226 6.70105 14.3827 6.98869 14.25L7.42014 14.0511L7.42014 6.55775C6.49971 6.38092 5.644 6.2925 4.853 6.2925C3.75999 6.2925 2.99776 6.65354 2.56631 7.37561C2.13486 8.08294 1.91913 9.18816 1.91913 10.6912C1.91913 12.4006 2.17081 13.5501 2.67417 14.1395Z"/>
<path d="M16.2282 2.0927C14.0709 2.0927 12.9923 2.92529 12.9923 4.59048C12.9923 5.51885 13.2368 6.15988 13.7257 6.51354C14.2291 6.85248 15.2358 7.19878 16.7459 7.55244C18.2704 7.89137 19.349 8.34083 19.9818 8.9008C20.6146 9.44604 20.931 10.3523 20.931 11.6196C20.931 14.7584 19.3418 16.3278 16.1634 16.3278C15.1136 16.3278 13.7976 16.2026 12.2157 15.9521L11.439 15.8415L11.6116 14.4269C13.5675 14.6921 15.056 14.8247 16.0771 14.8247C18.2056 14.8247 19.2699 13.8006 19.2699 11.7522C19.2699 10.927 19.0326 10.3376 18.558 9.98391C18.0978 9.6155 17.2277 9.30605 15.9477 9.05553C14.2651 8.68713 13.0714 8.21557 12.3667 7.64086C11.662 7.05141 11.3096 6.07146 11.3096 4.701C11.3096 1.96007 12.9132 0.589609 16.1203 0.589609C17.1702 0.589609 18.4286 0.70013 19.8955 0.921172L20.629 1.03169L20.478 2.46847C18.4789 2.21795 17.0623 2.0927 16.2282 2.0927Z"/>
<path d="M30.811 8.41451V14.0732C30.8542 14.6184 31.2713 14.9426 32.0623 15.0458L31.9975 16.3499C30.8614 16.3499 30.0057 16.0552 29.4304 15.4658C28.136 16.0552 26.8417 16.3499 25.5473 16.3499C24.555 16.3499 23.8 16.0626 23.2822 15.4879C22.7645 14.9132 22.5056 14.0879 22.5056 13.0122C22.5056 11.9365 22.7717 11.1481 23.3038 10.647C23.8359 10.1313 24.6701 9.81444 25.8062 9.69655L29.1931 9.36499V8.41451C29.1931 7.66296 29.0349 7.12509 28.7185 6.8009C28.4021 6.4767 27.9707 6.31461 27.4242 6.31461C26.2736 6.31461 25.0799 6.38829 23.8431 6.53565L23.1744 6.60196L23.1096 5.34202C24.6916 5.01782 26.0938 4.85573 27.3163 4.85573C28.5387 4.85573 29.4232 5.14308 29.9697 5.71779C30.5306 6.2925 30.811 7.19141 30.811 8.41451ZM24.1667 12.9238C24.1667 14.2795 24.7132 14.9574 25.8062 14.9574C26.7842 14.9574 27.7477 14.7879 28.6969 14.449L29.1931 14.2721V10.6249L26.0004 10.9344C25.3532 10.9933 24.8858 11.1849 24.5981 11.5091C24.3105 11.8333 24.1667 12.3049 24.1667 12.9238Z"/>
<path d="M32.5604 5.07677H34.2863L36.8102 14.6921H37.6084L40.2187 5.07677L41.8798 5.07677L38.8381 16.1289H35.6022L32.5604 5.07677Z"/>
<path d="M43.6368 16.1289V5.07677H45.2547V16.1289H43.6368Z"/>
<path d="M49.6501 16.1289L48.0322 16.1289V5.07677H49.6286V5.85042C50.7935 5.18729 51.9081 4.85573 52.9723 4.85573C54.4105 4.85573 55.3741 5.2536 55.863 6.04935C56.3664 6.84511 56.6181 8.25978 56.6181 10.2934V16.1289H55.0217V10.3376C55.0217 8.80502 54.8707 7.75875 54.5687 7.19878C54.2811 6.62407 53.6555 6.33671 52.6919 6.33671C52.2317 6.33671 51.7427 6.41039 51.2249 6.55775C50.7216 6.69038 50.3333 6.823 50.06 6.95563L49.6501 7.15457V16.1289Z"/>
<path d="M63.4589 21.3234C61.7331 21.3234 60.5251 21.0802 59.8348 20.5939C59.1588 20.1224 58.8208 19.253 58.8208 17.9856C58.8208 17.3815 58.9503 16.8878 59.2092 16.5047C59.468 16.1363 59.9067 15.7163 60.5251 15.2447C60.1224 14.9647 59.921 14.4563 59.921 13.7195C59.921 13.469 60.1008 13.0048 60.4604 12.327L60.6545 11.9733C59.5184 11.4428 58.9503 10.3302 58.9503 8.63555C58.9503 6.11567 60.295 4.85573 62.9844 4.85573C63.6747 4.85573 64.3147 4.92941 64.9043 5.07677L65.2279 5.14308L68.4206 5.05466V6.46934L66.3712 6.42513C66.8458 6.91142 67.0831 7.64823 67.0831 8.63555C67.0831 10.0207 66.7452 10.9933 66.0692 11.5533C65.4077 12.0985 64.3578 12.3712 62.9196 12.3712C62.5313 12.3712 62.179 12.3417 61.8626 12.2827C61.6037 12.9311 61.4743 13.3511 61.4743 13.5427C61.4743 13.9995 61.6109 14.2869 61.8841 14.4048C62.1574 14.5079 62.9843 14.5595 64.365 14.5595C65.7456 14.5595 66.738 14.7805 67.342 15.2226C67.946 15.6647 68.2481 16.5268 68.2481 17.8088C68.2481 20.1519 66.6517 21.3234 63.4589 21.3234ZM60.4172 17.853C60.4172 18.634 60.6257 19.1719 61.0428 19.4666C61.4743 19.7761 62.2581 19.9308 63.3942 19.9308C64.5448 19.9308 65.3645 19.7687 65.8535 19.4445C66.3569 19.1203 66.6085 18.5751 66.6085 17.8088C66.6085 17.0573 66.4288 16.571 66.0692 16.3499C65.7097 16.1289 65.005 16.0184 63.9551 16.0184L61.6253 15.9078C61.1507 16.2615 60.8271 16.571 60.6545 16.8362C60.4963 17.1015 60.4172 17.4404 60.4172 17.853ZM60.5682 8.63555C60.5682 9.50498 60.7552 10.1239 61.1291 10.4923C61.5174 10.8607 62.1502 11.0449 63.0275 11.0449C63.9048 11.0449 64.5304 10.8607 64.9043 10.4923C65.2782 10.1239 65.4652 9.50498 65.4652 8.63555C65.4652 7.75138 65.2782 7.12509 64.9043 6.75669C64.5304 6.38829 63.9048 6.20408 63.0275 6.20408C62.1502 6.20408 61.5174 6.39565 61.1291 6.7788C60.7552 7.1472 60.5682 7.76612 60.5682 8.63555Z"/>
<path d="M73.44 6.33671C71.8724 6.33671 71.0886 6.89668 71.0886 8.01663C71.0886 8.5324 71.2683 8.9008 71.6279 9.12184C71.9874 9.32815 72.8072 9.54919 74.0871 9.78497C75.3671 10.006 76.2732 10.3228 76.8053 10.7355C77.3374 11.1481 77.6035 11.9217 77.6035 13.0564C77.6035 14.1911 77.2439 15.0237 76.5248 15.5542C75.8201 16.0847 74.7847 16.3499 73.4184 16.3499C72.5267 16.3499 71.4769 16.2468 70.2688 16.0405L69.6216 15.9299L69.7079 14.4932C71.3474 14.7437 72.5843 14.8689 73.4184 14.8689C74.2525 14.8689 74.8853 14.7363 75.3168 14.4711C75.7626 14.1911 75.9855 13.7343 75.9855 13.1006C75.9855 12.4522 75.7986 12.0175 75.4246 11.7965C75.0507 11.5607 74.231 11.3396 72.9654 11.1333C71.6998 10.927 70.8009 10.6249 70.2688 10.2271C69.7367 9.82918 69.4706 9.09237 69.4706 8.01663C69.4706 6.94089 69.8373 6.14514 70.5708 5.62937C71.3187 5.11361 72.2463 4.85573 73.3537 4.85573C74.231 4.85573 75.3312 4.95888 76.6543 5.16519L77.2583 5.27571L77.2152 6.69038C75.6188 6.4546 74.3604 6.33671 73.44 6.33671Z"/>
</mask>
<path d="M9.01651 0.258045V16.1289H7.42014V15.3773C6.31275 16.0257 5.21974 16.3499 4.14111 16.3499C3.56584 16.3499 3.06248 16.2762 2.63103 16.1289C2.19958 15.9815 1.79689 15.7163 1.42296 15.3331C0.646351 14.5374 0.258045 13.0711 0.258045 10.9344C0.258045 8.78291 0.603206 7.23562 1.29353 6.2925C1.99823 5.33465 3.15596 4.85573 4.76671 4.85573C5.60085 4.85573 6.48533 4.95151 7.42014 5.14308V0.258045L9.01651 0.258045ZM2.67417 14.1395C2.90428 14.4195 3.14877 14.6111 3.40764 14.7142C3.66651 14.8174 3.99729 14.8689 4.39998 14.8689C4.81705 14.8689 5.27726 14.8026 5.78062 14.67C6.29837 14.5226 6.70105 14.3827 6.98869 14.25L7.42014 14.0511L7.42014 6.55775C6.49971 6.38092 5.644 6.2925 4.853 6.2925C3.75999 6.2925 2.99776 6.65354 2.56631 7.37561C2.13486 8.08294 1.91913 9.18816 1.91913 10.6912C1.91913 12.4006 2.17081 13.5501 2.67417 14.1395Z" fill="#E3E3E3"/>
<path d="M16.2282 2.0927C14.0709 2.0927 12.9923 2.92529 12.9923 4.59048C12.9923 5.51885 13.2368 6.15988 13.7257 6.51354C14.2291 6.85248 15.2358 7.19878 16.7459 7.55244C18.2704 7.89137 19.349 8.34083 19.9818 8.9008C20.6146 9.44604 20.931 10.3523 20.931 11.6196C20.931 14.7584 19.3418 16.3278 16.1634 16.3278C15.1136 16.3278 13.7976 16.2026 12.2157 15.9521L11.439 15.8415L11.6116 14.4269C13.5675 14.6921 15.056 14.8247 16.0771 14.8247C18.2056 14.8247 19.2699 13.8006 19.2699 11.7522C19.2699 10.927 19.0326 10.3376 18.558 9.98391C18.0978 9.6155 17.2277 9.30605 15.9477 9.05553C14.2651 8.68713 13.0714 8.21557 12.3667 7.64086C11.662 7.05141 11.3096 6.07146 11.3096 4.701C11.3096 1.96007 12.9132 0.589609 16.1203 0.589609C17.1702 0.589609 18.4286 0.70013 19.8955 0.921172L20.629 1.03169L20.478 2.46847C18.4789 2.21795 17.0623 2.0927 16.2282 2.0927Z" fill="#E3E3E3"/>
<path d="M30.811 8.41451V14.0732C30.8542 14.6184 31.2713 14.9426 32.0623 15.0458L31.9975 16.3499C30.8614 16.3499 30.0057 16.0552 29.4304 15.4658C28.136 16.0552 26.8417 16.3499 25.5473 16.3499C24.555 16.3499 23.8 16.0626 23.2822 15.4879C22.7645 14.9132 22.5056 14.0879 22.5056 13.0122C22.5056 11.9365 22.7717 11.1481 23.3038 10.647C23.8359 10.1313 24.6701 9.81444 25.8062 9.69655L29.1931 9.36499V8.41451C29.1931 7.66296 29.0349 7.12509 28.7185 6.8009C28.4021 6.4767 27.9707 6.31461 27.4242 6.31461C26.2736 6.31461 25.0799 6.38829 23.8431 6.53565L23.1744 6.60196L23.1096 5.34202C24.6916 5.01782 26.0938 4.85573 27.3163 4.85573C28.5387 4.85573 29.4232 5.14308 29.9697 5.71779C30.5306 6.2925 30.811 7.19141 30.811 8.41451ZM24.1667 12.9238C24.1667 14.2795 24.7132 14.9574 25.8062 14.9574C26.7842 14.9574 27.7477 14.7879 28.6969 14.449L29.1931 14.2721V10.6249L26.0004 10.9344C25.3532 10.9933 24.8858 11.1849 24.5981 11.5091C24.3105 11.8333 24.1667 12.3049 24.1667 12.9238Z" fill="#E3E3E3"/>
<path d="M32.5604 5.07677H34.2863L36.8102 14.6921H37.6084L40.2187 5.07677L41.8798 5.07677L38.8381 16.1289H35.6022L32.5604 5.07677Z" fill="#E3E3E3"/>
<path d="M43.6368 16.1289V5.07677H45.2547V16.1289H43.6368Z" fill="#E3E3E3"/>
<path d="M49.6501 16.1289L48.0322 16.1289V5.07677H49.6286V5.85042C50.7935 5.18729 51.9081 4.85573 52.9723 4.85573C54.4105 4.85573 55.3741 5.2536 55.863 6.04935C56.3664 6.84511 56.6181 8.25978 56.6181 10.2934V16.1289H55.0217V10.3376C55.0217 8.80502 54.8707 7.75875 54.5687 7.19878C54.2811 6.62407 53.6555 6.33671 52.6919 6.33671C52.2317 6.33671 51.7427 6.41039 51.2249 6.55775C50.7216 6.69038 50.3333 6.823 50.06 6.95563L49.6501 7.15457V16.1289Z" fill="#E3E3E3"/>
<path d="M63.4589 21.3234C61.7331 21.3234 60.5251 21.0802 59.8348 20.5939C59.1588 20.1224 58.8208 19.253 58.8208 17.9856C58.8208 17.3815 58.9503 16.8878 59.2092 16.5047C59.468 16.1363 59.9067 15.7163 60.5251 15.2447C60.1224 14.9647 59.921 14.4563 59.921 13.7195C59.921 13.469 60.1008 13.0048 60.4604 12.327L60.6545 11.9733C59.5184 11.4428 58.9503 10.3302 58.9503 8.63555C58.9503 6.11567 60.295 4.85573 62.9844 4.85573C63.6747 4.85573 64.3147 4.92941 64.9043 5.07677L65.2279 5.14308L68.4206 5.05466V6.46934L66.3712 6.42513C66.8458 6.91142 67.0831 7.64823 67.0831 8.63555C67.0831 10.0207 66.7452 10.9933 66.0692 11.5533C65.4077 12.0985 64.3578 12.3712 62.9196 12.3712C62.5313 12.3712 62.179 12.3417 61.8626 12.2827C61.6037 12.9311 61.4743 13.3511 61.4743 13.5427C61.4743 13.9995 61.6109 14.2869 61.8841 14.4048C62.1574 14.5079 62.9843 14.5595 64.365 14.5595C65.7456 14.5595 66.738 14.7805 67.342 15.2226C67.946 15.6647 68.2481 16.5268 68.2481 17.8088C68.2481 20.1519 66.6517 21.3234 63.4589 21.3234ZM60.4172 17.853C60.4172 18.634 60.6257 19.1719 61.0428 19.4666C61.4743 19.7761 62.2581 19.9308 63.3942 19.9308C64.5448 19.9308 65.3645 19.7687 65.8535 19.4445C66.3569 19.1203 66.6085 18.5751 66.6085 17.8088C66.6085 17.0573 66.4288 16.571 66.0692 16.3499C65.7097 16.1289 65.005 16.0184 63.9551 16.0184L61.6253 15.9078C61.1507 16.2615 60.8271 16.571 60.6545 16.8362C60.4963 17.1015 60.4172 17.4404 60.4172 17.853ZM60.5682 8.63555C60.5682 9.50498 60.7552 10.1239 61.1291 10.4923C61.5174 10.8607 62.1502 11.0449 63.0275 11.0449C63.9048 11.0449 64.5304 10.8607 64.9043 10.4923C65.2782 10.1239 65.4652 9.50498 65.4652 8.63555C65.4652 7.75138 65.2782 7.12509 64.9043 6.75669C64.5304 6.38829 63.9048 6.20408 63.0275 6.20408C62.1502 6.20408 61.5174 6.39565 61.1291 6.7788C60.7552 7.1472 60.5682 7.76612 60.5682 8.63555Z" fill="#E3E3E3"/>
<path d="M73.44 6.33671C71.8724 6.33671 71.0886 6.89668 71.0886 8.01663C71.0886 8.5324 71.2683 8.9008 71.6279 9.12184C71.9874 9.32815 72.8072 9.54919 74.0871 9.78497C75.3671 10.006 76.2732 10.3228 76.8053 10.7355C77.3374 11.1481 77.6035 11.9217 77.6035 13.0564C77.6035 14.1911 77.2439 15.0237 76.5248 15.5542C75.8201 16.0847 74.7847 16.3499 73.4184 16.3499C72.5267 16.3499 71.4769 16.2468 70.2688 16.0405L69.6216 15.9299L69.7079 14.4932C71.3474 14.7437 72.5843 14.8689 73.4184 14.8689C74.2525 14.8689 74.8853 14.7363 75.3168 14.4711C75.7626 14.1911 75.9855 13.7343 75.9855 13.1006C75.9855 12.4522 75.7986 12.0175 75.4246 11.7965C75.0507 11.5607 74.231 11.3396 72.9654 11.1333C71.6998 10.927 70.8009 10.6249 70.2688 10.2271C69.7367 9.82918 69.4706 9.09237 69.4706 8.01663C69.4706 6.94089 69.8373 6.14514 70.5708 5.62937C71.3187 5.11361 72.2463 4.85573 73.3537 4.85573C74.231 4.85573 75.3312 4.95888 76.6543 5.16519L77.2583 5.27571L77.2152 6.69038C75.6188 6.4546 74.3604 6.33671 73.44 6.33671Z" fill="#E3E3E3"/>
<path d="M9.01651 0.258045V16.1289H7.42014V15.3773C6.31275 16.0257 5.21974 16.3499 4.14111 16.3499C3.56584 16.3499 3.06248 16.2762 2.63103 16.1289C2.19958 15.9815 1.79689 15.7163 1.42296 15.3331C0.646351 14.5374 0.258045 13.0711 0.258045 10.9344C0.258045 8.78291 0.603206 7.23562 1.29353 6.2925C1.99823 5.33465 3.15596 4.85573 4.76671 4.85573C5.60085 4.85573 6.48533 4.95151 7.42014 5.14308V0.258045L9.01651 0.258045ZM2.67417 14.1395C2.90428 14.4195 3.14877 14.6111 3.40764 14.7142C3.66651 14.8174 3.99729 14.8689 4.39998 14.8689C4.81705 14.8689 5.27726 14.8026 5.78062 14.67C6.29837 14.5226 6.70105 14.3827 6.98869 14.25L7.42014 14.0511L7.42014 6.55775C6.49971 6.38092 5.644 6.2925 4.853 6.2925C3.75999 6.2925 2.99776 6.65354 2.56631 7.37561C2.13486 8.08294 1.91913 9.18816 1.91913 10.6912C1.91913 12.4006 2.17081 13.5501 2.67417 14.1395Z" stroke="#E3E3E3" stroke-width="0.516089" mask="url(#path-1-outside-1_0_284)"/>
<path d="M16.2282 2.0927C14.0709 2.0927 12.9923 2.92529 12.9923 4.59048C12.9923 5.51885 13.2368 6.15988 13.7257 6.51354C14.2291 6.85248 15.2358 7.19878 16.7459 7.55244C18.2704 7.89137 19.349 8.34083 19.9818 8.9008C20.6146 9.44604 20.931 10.3523 20.931 11.6196C20.931 14.7584 19.3418 16.3278 16.1634 16.3278C15.1136 16.3278 13.7976 16.2026 12.2157 15.9521L11.439 15.8415L11.6116 14.4269C13.5675 14.6921 15.056 14.8247 16.0771 14.8247C18.2056 14.8247 19.2699 13.8006 19.2699 11.7522C19.2699 10.927 19.0326 10.3376 18.558 9.98391C18.0978 9.6155 17.2277 9.30605 15.9477 9.05553C14.2651 8.68713 13.0714 8.21557 12.3667 7.64086C11.662 7.05141 11.3096 6.07146 11.3096 4.701C11.3096 1.96007 12.9132 0.589609 16.1203 0.589609C17.1702 0.589609 18.4286 0.70013 19.8955 0.921172L20.629 1.03169L20.478 2.46847C18.4789 2.21795 17.0623 2.0927 16.2282 2.0927Z" stroke="#E3E3E3" stroke-width="0.516089" mask="url(#path-1-outside-1_0_284)"/>
<path d="M30.811 8.41451V14.0732C30.8542 14.6184 31.2713 14.9426 32.0623 15.0458L31.9975 16.3499C30.8614 16.3499 30.0057 16.0552 29.4304 15.4658C28.136 16.0552 26.8417 16.3499 25.5473 16.3499C24.555 16.3499 23.8 16.0626 23.2822 15.4879C22.7645 14.9132 22.5056 14.0879 22.5056 13.0122C22.5056 11.9365 22.7717 11.1481 23.3038 10.647C23.8359 10.1313 24.6701 9.81444 25.8062 9.69655L29.1931 9.36499V8.41451C29.1931 7.66296 29.0349 7.12509 28.7185 6.8009C28.4021 6.4767 27.9707 6.31461 27.4242 6.31461C26.2736 6.31461 25.0799 6.38829 23.8431 6.53565L23.1744 6.60196L23.1096 5.34202C24.6916 5.01782 26.0938 4.85573 27.3163 4.85573C28.5387 4.85573 29.4232 5.14308 29.9697 5.71779C30.5306 6.2925 30.811 7.19141 30.811 8.41451ZM24.1667 12.9238C24.1667 14.2795 24.7132 14.9574 25.8062 14.9574C26.7842 14.9574 27.7477 14.7879 28.6969 14.449L29.1931 14.2721V10.6249L26.0004 10.9344C25.3532 10.9933 24.8858 11.1849 24.5981 11.5091C24.3105 11.8333 24.1667 12.3049 24.1667 12.9238Z" stroke="#E3E3E3" stroke-width="0.516089" mask="url(#path-1-outside-1_0_284)"/>
<path d="M32.5604 5.07677H34.2863L36.8102 14.6921H37.6084L40.2187 5.07677L41.8798 5.07677L38.8381 16.1289H35.6022L32.5604 5.07677Z" stroke="#E3E3E3" stroke-width="0.516089" mask="url(#path-1-outside-1_0_284)"/>
<path d="M43.6368 16.1289V5.07677H45.2547V16.1289H43.6368Z" stroke="#E3E3E3" stroke-width="0.516089" mask="url(#path-1-outside-1_0_284)"/>
<path d="M49.6501 16.1289L48.0322 16.1289V5.07677H49.6286V5.85042C50.7935 5.18729 51.9081 4.85573 52.9723 4.85573C54.4105 4.85573 55.3741 5.2536 55.863 6.04935C56.3664 6.84511 56.6181 8.25978 56.6181 10.2934V16.1289H55.0217V10.3376C55.0217 8.80502 54.8707 7.75875 54.5687 7.19878C54.2811 6.62407 53.6555 6.33671 52.6919 6.33671C52.2317 6.33671 51.7427 6.41039 51.2249 6.55775C50.7216 6.69038 50.3333 6.823 50.06 6.95563L49.6501 7.15457V16.1289Z" stroke="#E3E3E3" stroke-width="0.516089" mask="url(#path-1-outside-1_0_284)"/>
<path d="M63.4589 21.3234C61.7331 21.3234 60.5251 21.0802 59.8348 20.5939C59.1588 20.1224 58.8208 19.253 58.8208 17.9856C58.8208 17.3815 58.9503 16.8878 59.2092 16.5047C59.468 16.1363 59.9067 15.7163 60.5251 15.2447C60.1224 14.9647 59.921 14.4563 59.921 13.7195C59.921 13.469 60.1008 13.0048 60.4604 12.327L60.6545 11.9733C59.5184 11.4428 58.9503 10.3302 58.9503 8.63555C58.9503 6.11567 60.295 4.85573 62.9844 4.85573C63.6747 4.85573 64.3147 4.92941 64.9043 5.07677L65.2279 5.14308L68.4206 5.05466V6.46934L66.3712 6.42513C66.8458 6.91142 67.0831 7.64823 67.0831 8.63555C67.0831 10.0207 66.7452 10.9933 66.0692 11.5533C65.4077 12.0985 64.3578 12.3712 62.9196 12.3712C62.5313 12.3712 62.179 12.3417 61.8626 12.2827C61.6037 12.9311 61.4743 13.3511 61.4743 13.5427C61.4743 13.9995 61.6109 14.2869 61.8841 14.4048C62.1574 14.5079 62.9843 14.5595 64.365 14.5595C65.7456 14.5595 66.738 14.7805 67.342 15.2226C67.946 15.6647 68.2481 16.5268 68.2481 17.8088C68.2481 20.1519 66.6517 21.3234 63.4589 21.3234ZM60.4172 17.853C60.4172 18.634 60.6257 19.1719 61.0428 19.4666C61.4743 19.7761 62.2581 19.9308 63.3942 19.9308C64.5448 19.9308 65.3645 19.7687 65.8535 19.4445C66.3569 19.1203 66.6085 18.5751 66.6085 17.8088C66.6085 17.0573 66.4288 16.571 66.0692 16.3499C65.7097 16.1289 65.005 16.0184 63.9551 16.0184L61.6253 15.9078C61.1507 16.2615 60.8271 16.571 60.6545 16.8362C60.4963 17.1015 60.4172 17.4404 60.4172 17.853ZM60.5682 8.63555C60.5682 9.50498 60.7552 10.1239 61.1291 10.4923C61.5174 10.8607 62.1502 11.0449 63.0275 11.0449C63.9048 11.0449 64.5304 10.8607 64.9043 10.4923C65.2782 10.1239 65.4652 9.50498 65.4652 8.63555C65.4652 7.75138 65.2782 7.12509 64.9043 6.75669C64.5304 6.38829 63.9048 6.20408 63.0275 6.20408C62.1502 6.20408 61.5174 6.39565 61.1291 6.7788C60.7552 7.1472 60.5682 7.76612 60.5682 8.63555Z" stroke="#E3E3E3" stroke-width="0.516089" mask="url(#path-1-outside-1_0_284)"/>
<path d="M73.44 6.33671C71.8724 6.33671 71.0886 6.89668 71.0886 8.01663C71.0886 8.5324 71.2683 8.9008 71.6279 9.12184C71.9874 9.32815 72.8072 9.54919 74.0871 9.78497C75.3671 10.006 76.2732 10.3228 76.8053 10.7355C77.3374 11.1481 77.6035 11.9217 77.6035 13.0564C77.6035 14.1911 77.2439 15.0237 76.5248 15.5542C75.8201 16.0847 74.7847 16.3499 73.4184 16.3499C72.5267 16.3499 71.4769 16.2468 70.2688 16.0405L69.6216 15.9299L69.7079 14.4932C71.3474 14.7437 72.5843 14.8689 73.4184 14.8689C74.2525 14.8689 74.8853 14.7363 75.3168 14.4711C75.7626 14.1911 75.9855 13.7343 75.9855 13.1006C75.9855 12.4522 75.7986 12.0175 75.4246 11.7965C75.0507 11.5607 74.231 11.3396 72.9654 11.1333C71.6998 10.927 70.8009 10.6249 70.2688 10.2271C69.7367 9.82918 69.4706 9.09237 69.4706 8.01663C69.4706 6.94089 69.8373 6.14514 70.5708 5.62937C71.3187 5.11361 72.2463 4.85573 73.3537 4.85573C74.231 4.85573 75.3312 4.95888 76.6543 5.16519L77.2583 5.27571L77.2152 6.69038C75.6188 6.4546 74.3604 6.33671 73.44 6.33671Z" stroke="#E3E3E3" stroke-width="0.516089" mask="url(#path-1-outside-1_0_284)"/>
</g>
<path id="i" d="M44.4434 0.369644C45.195 0.369644 45.7772 0.971013 45.7774 1.70851C45.7774 2.43712 45.1944 3.03761 44.4434 3.03761C43.7027 3.03742 43.1094 2.43766 43.1094 1.70851C43.1096 0.970472 43.7022 0.369838 44.4434 0.369644Z" fill="#E3E3E3" stroke="#E3E3E3" stroke-width="0.253216"/>
</g>
</svg>
