<svg preserveAspectRatio="none" overflow="visible" style="display: block;" width="113.995" height="27.5768" viewBox="0 0 113.995 27.5768" fill="none" xmlns="http://www.w3.org/2000/svg">
<g id="Group 1000006075">
<g id="dWallet">
<mask id="path-1-outside-1_0_604" maskUnits="userSpaceOnUse" x="-0.593993" y="-0.593993" width="108" height="27" fill="black">
<rect fill="white" x="-0.593993" y="-0.593993" width="108" height="27"/>
<path d="M14.5247 0.406007V25.3745H11.9513V24.1921C10.1662 25.2122 8.40426 25.7222 6.66551 25.7222C5.73818 25.7222 4.92676 25.6063 4.23126 25.3745C3.53576 25.1426 2.88663 24.7253 2.28386 24.1226C1.03196 22.8707 0.406007 20.5639 0.406007 17.2023C0.406007 13.8176 0.962408 11.3833 2.07521 9.89959C3.21119 8.39267 5.07745 7.63921 7.67399 7.63921C9.01862 7.63921 10.4444 7.78991 11.9513 8.09129V0.406007H14.5247ZM4.30081 22.2447C4.67174 22.6852 5.06586 22.9866 5.48316 23.1489C5.90046 23.3112 6.43368 23.3923 7.08281 23.3923C7.75513 23.3923 8.497 23.288 9.30842 23.0793C10.143 22.8475 10.7921 22.6273 11.2558 22.4186L11.9513 22.1056V10.3169C10.4676 10.0387 9.08817 9.89959 7.81309 9.89959C6.05115 9.89959 4.82244 10.4676 4.12694 11.6036C3.43143 12.7164 3.08368 14.4551 3.08368 16.8198C3.08368 19.5091 3.48939 21.3174 4.30081 22.2447Z"/>
<path d="M17.5952 0.406007H20.3772L24.4807 23.0098H25.4891L30.3924 1.51881H33.5222L38.4254 23.0098H39.4339L43.5374 0.406007H46.2846L41.4161 25.3745H36.5128L31.9573 4.82244L27.4018 25.3745H22.4985L17.5952 0.406007Z"/>
<path d="M61.102 13.238V22.1404C61.1716 22.9982 61.8439 23.5082 63.119 23.6705L63.0146 25.7222C61.1832 25.7222 59.8037 25.2586 58.8764 24.3312C56.7899 25.2586 54.7034 25.7222 52.6169 25.7222C51.0173 25.7222 49.8001 25.2702 48.9655 24.366C48.1309 23.4619 47.7136 22.1636 47.7136 20.4712C47.7136 18.7788 48.1425 17.5385 49.0003 16.7503C49.8581 15.9389 51.2027 15.4404 53.0342 15.2549L58.4939 14.7333V13.238C58.4939 12.0556 58.2389 11.2095 57.7288 10.6994C57.2188 10.1894 56.5233 9.93437 55.6423 9.93437C53.7877 9.93437 51.8634 10.0503 49.8697 10.2821L48.7917 10.3864L48.6873 8.40426C51.2375 7.89423 53.4979 7.63921 55.4685 7.63921C57.439 7.63921 58.8648 8.09129 59.7458 8.99544C60.6499 9.89959 61.102 11.3138 61.102 13.238ZM50.3913 20.3321C50.3913 22.465 51.2723 23.5314 53.0342 23.5314C54.6107 23.5314 56.164 23.2648 57.6941 22.7316L58.4939 22.4534V16.7155L53.3472 17.2023C52.3039 17.2951 51.5505 17.5965 51.0868 18.1065C50.6231 18.6165 50.3913 19.3584 50.3913 20.3321Z"/>
<path d="M65.9349 25.3745V0.406007H68.543V25.3745H65.9349Z"/>
<path d="M73.4618 25.3745V0.406007H76.0699V25.3745H73.4618Z"/>
<path d="M92.6036 23.2184L93.612 23.1141L93.6816 25.1658C91.0387 25.5368 88.7783 25.7222 86.9005 25.7222C84.3967 25.7222 82.6231 25.0035 81.5799 23.5662C80.5366 22.1056 80.015 19.8452 80.015 16.785C80.015 10.6878 82.4377 7.63921 87.283 7.63921C89.6245 7.63921 91.3749 8.29994 92.534 9.62139C93.6932 10.9197 94.2728 12.9714 94.2728 15.7766L94.1337 17.7587H82.6579C82.6579 19.683 83.0057 21.1087 83.7012 22.0361C84.3967 22.9634 85.6022 23.4271 87.3178 23.4271C89.0565 23.4271 90.8185 23.3575 92.6036 23.2184ZM91.6646 15.6722C91.6646 13.5394 91.3169 12.0325 90.6214 11.1515C89.9491 10.2705 88.8363 9.83004 87.283 9.83004C85.7529 9.83004 84.5937 10.2937 83.8055 11.221C83.0404 12.1484 82.6463 13.6321 82.6231 15.6722H91.6646Z"/>
<path d="M106.721 10.2473H101.191V18.5586C101.191 20.5523 101.33 21.8622 101.609 22.4881C101.91 23.1141 102.606 23.4271 103.695 23.4271L106.79 23.2184L106.964 25.3745C105.411 25.6295 104.228 25.757 103.417 25.757C101.609 25.757 100.357 25.3165 99.6613 24.4356C98.9658 23.5546 98.618 21.8738 98.618 19.3932V10.2473H96.149V7.98696H98.618V2.66638H101.191V7.98696H106.721V10.2473Z"/>
</mask>
<path d="M14.5247 0.406007V25.3745H11.9513V24.1921C10.1662 25.2122 8.40426 25.7222 6.66551 25.7222C5.73818 25.7222 4.92676 25.6063 4.23126 25.3745C3.53576 25.1426 2.88663 24.7253 2.28386 24.1226C1.03196 22.8707 0.406007 20.5639 0.406007 17.2023C0.406007 13.8176 0.962408 11.3833 2.07521 9.89959C3.21119 8.39267 5.07745 7.63921 7.67399 7.63921C9.01862 7.63921 10.4444 7.78991 11.9513 8.09129V0.406007H14.5247ZM4.30081 22.2447C4.67174 22.6852 5.06586 22.9866 5.48316 23.1489C5.90046 23.3112 6.43368 23.3923 7.08281 23.3923C7.75513 23.3923 8.497 23.288 9.30842 23.0793C10.143 22.8475 10.7921 22.6273 11.2558 22.4186L11.9513 22.1056V10.3169C10.4676 10.0387 9.08817 9.89959 7.81309 9.89959C6.05115 9.89959 4.82244 10.4676 4.12694 11.6036C3.43143 12.7164 3.08368 14.4551 3.08368 16.8198C3.08368 19.5091 3.48939 21.3174 4.30081 22.2447Z" fill="white"/>
<path d="M17.5952 0.406007H20.3772L24.4807 23.0098H25.4891L30.3924 1.51881H33.5222L38.4254 23.0098H39.4339L43.5374 0.406007H46.2846L41.4161 25.3745H36.5128L31.9573 4.82244L27.4018 25.3745H22.4985L17.5952 0.406007Z" fill="white"/>
<path d="M61.102 13.238V22.1404C61.1716 22.9982 61.8439 23.5082 63.119 23.6705L63.0146 25.7222C61.1832 25.7222 59.8037 25.2586 58.8764 24.3312C56.7899 25.2586 54.7034 25.7222 52.6169 25.7222C51.0173 25.7222 49.8001 25.2702 48.9655 24.366C48.1309 23.4619 47.7136 22.1636 47.7136 20.4712C47.7136 18.7788 48.1425 17.5385 49.0003 16.7503C49.8581 15.9389 51.2027 15.4404 53.0342 15.2549L58.4939 14.7333V13.238C58.4939 12.0556 58.2389 11.2095 57.7288 10.6994C57.2188 10.1894 56.5233 9.93437 55.6423 9.93437C53.7877 9.93437 51.8634 10.0503 49.8697 10.2821L48.7917 10.3864L48.6873 8.40426C51.2375 7.89423 53.4979 7.63921 55.4685 7.63921C57.439 7.63921 58.8648 8.09129 59.7458 8.99544C60.6499 9.89959 61.102 11.3138 61.102 13.238ZM50.3913 20.3321C50.3913 22.465 51.2723 23.5314 53.0342 23.5314C54.6107 23.5314 56.164 23.2648 57.6941 22.7316L58.4939 22.4534V16.7155L53.3472 17.2023C52.3039 17.2951 51.5505 17.5965 51.0868 18.1065C50.6231 18.6165 50.3913 19.3584 50.3913 20.3321Z" fill="white"/>
<path d="M65.9349 25.3745V0.406007H68.543V25.3745H65.9349Z" fill="white"/>
<path d="M73.4618 25.3745V0.406007H76.0699V25.3745H73.4618Z" fill="white"/>
<path d="M92.6036 23.2184L93.612 23.1141L93.6816 25.1658C91.0387 25.5368 88.7783 25.7222 86.9005 25.7222C84.3967 25.7222 82.6231 25.0035 81.5799 23.5662C80.5366 22.1056 80.015 19.8452 80.015 16.785C80.015 10.6878 82.4377 7.63921 87.283 7.63921C89.6245 7.63921 91.3749 8.29994 92.534 9.62139C93.6932 10.9197 94.2728 12.9714 94.2728 15.7766L94.1337 17.7587H82.6579C82.6579 19.683 83.0057 21.1087 83.7012 22.0361C84.3967 22.9634 85.6022 23.4271 87.3178 23.4271C89.0565 23.4271 90.8185 23.3575 92.6036 23.2184ZM91.6646 15.6722C91.6646 13.5394 91.3169 12.0325 90.6214 11.1515C89.9491 10.2705 88.8363 9.83004 87.283 9.83004C85.7529 9.83004 84.5937 10.2937 83.8055 11.221C83.0404 12.1484 82.6463 13.6321 82.6231 15.6722H91.6646Z" fill="white"/>
<path d="M106.721 10.2473H101.191V18.5586C101.191 20.5523 101.33 21.8622 101.609 22.4881C101.91 23.1141 102.606 23.4271 103.695 23.4271L106.79 23.2184L106.964 25.3745C105.411 25.6295 104.228 25.757 103.417 25.757C101.609 25.757 100.357 25.3165 99.6613 24.4356C98.9658 23.5546 98.618 21.8738 98.618 19.3932V10.2473H96.149V7.98696H98.618V2.66638H101.191V7.98696H106.721V10.2473Z" fill="white"/>
<path d="M14.5247 0.406007V25.3745H11.9513V24.1921C10.1662 25.2122 8.40426 25.7222 6.66551 25.7222C5.73818 25.7222 4.92676 25.6063 4.23126 25.3745C3.53576 25.1426 2.88663 24.7253 2.28386 24.1226C1.03196 22.8707 0.406007 20.5639 0.406007 17.2023C0.406007 13.8176 0.962408 11.3833 2.07521 9.89959C3.21119 8.39267 5.07745 7.63921 7.67399 7.63921C9.01862 7.63921 10.4444 7.78991 11.9513 8.09129V0.406007H14.5247ZM4.30081 22.2447C4.67174 22.6852 5.06586 22.9866 5.48316 23.1489C5.90046 23.3112 6.43368 23.3923 7.08281 23.3923C7.75513 23.3923 8.497 23.288 9.30842 23.0793C10.143 22.8475 10.7921 22.6273 11.2558 22.4186L11.9513 22.1056V10.3169C10.4676 10.0387 9.08817 9.89959 7.81309 9.89959C6.05115 9.89959 4.82244 10.4676 4.12694 11.6036C3.43143 12.7164 3.08368 14.4551 3.08368 16.8198C3.08368 19.5091 3.48939 21.3174 4.30081 22.2447Z" stroke="white" stroke-width="0.812014" mask="url(#path-1-outside-1_0_604)"/>
<path d="M17.5952 0.406007H20.3772L24.4807 23.0098H25.4891L30.3924 1.51881H33.5222L38.4254 23.0098H39.4339L43.5374 0.406007H46.2846L41.4161 25.3745H36.5128L31.9573 4.82244L27.4018 25.3745H22.4985L17.5952 0.406007Z" stroke="white" stroke-width="0.812014" mask="url(#path-1-outside-1_0_604)"/>
<path d="M61.102 13.238V22.1404C61.1716 22.9982 61.8439 23.5082 63.119 23.6705L63.0146 25.7222C61.1832 25.7222 59.8037 25.2586 58.8764 24.3312C56.7899 25.2586 54.7034 25.7222 52.6169 25.7222C51.0173 25.7222 49.8001 25.2702 48.9655 24.366C48.1309 23.4619 47.7136 22.1636 47.7136 20.4712C47.7136 18.7788 48.1425 17.5385 49.0003 16.7503C49.8581 15.9389 51.2027 15.4404 53.0342 15.2549L58.4939 14.7333V13.238C58.4939 12.0556 58.2389 11.2095 57.7288 10.6994C57.2188 10.1894 56.5233 9.93437 55.6423 9.93437C53.7877 9.93437 51.8634 10.0503 49.8697 10.2821L48.7917 10.3864L48.6873 8.40426C51.2375 7.89423 53.4979 7.63921 55.4685 7.63921C57.439 7.63921 58.8648 8.09129 59.7458 8.99544C60.6499 9.89959 61.102 11.3138 61.102 13.238ZM50.3913 20.3321C50.3913 22.465 51.2723 23.5314 53.0342 23.5314C54.6107 23.5314 56.164 23.2648 57.6941 22.7316L58.4939 22.4534V16.7155L53.3472 17.2023C52.3039 17.2951 51.5505 17.5965 51.0868 18.1065C50.6231 18.6165 50.3913 19.3584 50.3913 20.3321Z" stroke="white" stroke-width="0.812014" mask="url(#path-1-outside-1_0_604)"/>
<path d="M65.9349 25.3745V0.406007H68.543V25.3745H65.9349Z" stroke="white" stroke-width="0.812014" mask="url(#path-1-outside-1_0_604)"/>
<path d="M73.4618 25.3745V0.406007H76.0699V25.3745H73.4618Z" stroke="white" stroke-width="0.812014" mask="url(#path-1-outside-1_0_604)"/>
<path d="M92.6036 23.2184L93.612 23.1141L93.6816 25.1658C91.0387 25.5368 88.7783 25.7222 86.9005 25.7222C84.3967 25.7222 82.6231 25.0035 81.5799 23.5662C80.5366 22.1056 80.015 19.8452 80.015 16.785C80.015 10.6878 82.4377 7.63921 87.283 7.63921C89.6245 7.63921 91.3749 8.29994 92.534 9.62139C93.6932 10.9197 94.2728 12.9714 94.2728 15.7766L94.1337 17.7587H82.6579C82.6579 19.683 83.0057 21.1087 83.7012 22.0361C84.3967 22.9634 85.6022 23.4271 87.3178 23.4271C89.0565 23.4271 90.8185 23.3575 92.6036 23.2184ZM91.6646 15.6722C91.6646 13.5394 91.3169 12.0325 90.6214 11.1515C89.9491 10.2705 88.8363 9.83004 87.283 9.83004C85.7529 9.83004 84.5937 10.2937 83.8055 11.221C83.0404 12.1484 82.6463 13.6321 82.6231 15.6722H91.6646Z" stroke="white" stroke-width="0.812014" mask="url(#path-1-outside-1_0_604)"/>
<path d="M106.721 10.2473H101.191V18.5586C101.191 20.5523 101.33 21.8622 101.609 22.4881C101.91 23.1141 102.606 23.4271 103.695 23.4271L106.79 23.2184L106.964 25.3745C105.411 25.6295 104.228 25.757 103.417 25.757C101.609 25.757 100.357 25.3165 99.6613 24.4356C98.9658 23.5546 98.618 21.8738 98.618 19.3932V10.2473H96.149V7.98696H98.618V2.66638H101.191V7.98696H106.721V10.2473Z" stroke="white" stroke-width="0.812014" mask="url(#path-1-outside-1_0_604)"/>
</g>
<path id="i" d="M110.411 21.2214C111.973 21.2214 113.182 22.4765 113.182 24.0017C113.182 25.5152 111.968 26.7644 110.411 26.7644C108.874 26.7641 107.64 25.5193 107.639 24.0017C107.639 22.4724 108.869 21.2216 110.411 21.2214Z" fill="white" stroke="#121212" stroke-width="1.62403"/>
</g>
</svg>
